<svg width="196" height="123" viewBox="0 0 196 123" fill="none" xmlns="http://www.w3.org/2000/svg">
<g style="mix-blend-mode:darken">
<path d="M16.2784 53.3821V48.8182H37.7812V53.3821H29.7656V75H24.294V53.3821H16.2784ZM51.1406 66.6392V55.3636H56.5866V75H51.358V71.4332H51.1534C50.7102 72.5838 49.973 73.5085 48.9418 74.2074C47.919 74.9062 46.6705 75.2557 45.196 75.2557C43.8835 75.2557 42.7287 74.9574 41.7315 74.3608C40.7344 73.7642 39.9545 72.9162 39.392 71.8168C38.8381 70.7173 38.5568 69.4006 38.5483 67.8665V55.3636H43.9943V66.8949C44.0028 68.054 44.3139 68.9702 44.9276 69.6435C45.5412 70.3168 46.3636 70.6534 47.3949 70.6534C48.0511 70.6534 48.6648 70.5043 49.2358 70.206C49.8068 69.8991 50.267 69.4474 50.6165 68.8509C50.9744 68.2543 51.1491 67.517 51.1406 66.6392ZM71.3874 55.3636V59.4545H59.5621V55.3636H71.3874ZM62.2468 50.6591H67.6928V68.9659C67.6928 69.4687 67.7695 69.8608 67.9229 70.142C68.0763 70.4148 68.2894 70.6065 68.5621 70.7173C68.8434 70.8281 69.1673 70.8835 69.5337 70.8835C69.7894 70.8835 70.0451 70.8622 70.3008 70.8196C70.5565 70.7685 70.7525 70.7301 70.8889 70.7045L71.7454 74.7571C71.4727 74.8423 71.0891 74.9403 70.5948 75.0511C70.1005 75.1705 69.4996 75.2429 68.7923 75.2685C67.4798 75.3196 66.3292 75.1449 65.3406 74.7443C64.3604 74.3437 63.5977 73.7216 63.0522 72.8778C62.5067 72.0341 62.2383 70.9687 62.2468 69.6818V50.6591ZM83.5962 75.3835C81.6104 75.3835 79.8931 74.9616 78.4442 74.1179C77.0039 73.2656 75.8917 72.081 75.1076 70.5639C74.3235 69.0384 73.9315 67.2699 73.9315 65.2585C73.9315 63.2301 74.3235 61.4574 75.1076 59.9403C75.8917 58.4148 77.0039 57.2301 78.4442 56.3864C79.8931 55.5341 81.6104 55.108 83.5962 55.108C85.582 55.108 87.2951 55.5341 88.7354 56.3864C90.1843 57.2301 91.3008 58.4148 92.0849 59.9403C92.869 61.4574 93.261 63.2301 93.261 65.2585C93.261 67.2699 92.869 69.0384 92.0849 70.5639C91.3008 72.081 90.1843 73.2656 88.7354 74.1179C87.2951 74.9616 85.582 75.3835 83.5962 75.3835ZM83.6218 71.1648C84.5252 71.1648 85.2795 70.9091 85.8846 70.3977C86.4897 69.8778 86.9457 69.1705 87.2525 68.2756C87.5678 67.3807 87.7255 66.3622 87.7255 65.2202C87.7255 64.0781 87.5678 63.0597 87.2525 62.1648C86.9457 61.2699 86.4897 60.5625 85.8846 60.0426C85.2795 59.5227 84.5252 59.2628 83.6218 59.2628C82.7099 59.2628 81.9428 59.5227 81.3207 60.0426C80.707 60.5625 80.2425 61.2699 79.9272 62.1648C79.6204 63.0597 79.467 64.0781 79.467 65.2202C79.467 66.3622 79.6204 67.3807 79.9272 68.2756C80.2425 69.1705 80.707 69.8778 81.3207 70.3977C81.9428 70.9091 82.7099 71.1648 83.6218 71.1648ZM96.8022 75V55.3636H102.082V58.7898H102.287C102.645 57.571 103.245 56.6506 104.089 56.0284C104.933 55.3977 105.904 55.0824 107.004 55.0824C107.277 55.0824 107.571 55.0994 107.886 55.1335C108.201 55.1676 108.478 55.2145 108.717 55.2741V60.1065C108.461 60.0298 108.108 59.9616 107.656 59.902C107.204 59.8423 106.791 59.8125 106.416 59.8125C105.615 59.8125 104.899 59.9872 104.268 60.3366C103.646 60.6776 103.152 61.1548 102.785 61.7685C102.427 62.3821 102.248 63.0895 102.248 63.8906V75H96.8022ZM119.567 75.3835C117.548 75.3835 115.809 74.9744 114.352 74.1562C112.903 73.3295 111.786 72.1619 111.002 70.6534C110.218 69.1364 109.826 67.3423 109.826 65.2713C109.826 63.2514 110.218 61.4787 111.002 59.9531C111.786 58.4276 112.89 57.2386 114.313 56.3864C115.745 55.5341 117.424 55.108 119.35 55.108C120.646 55.108 121.852 55.3168 122.968 55.7344C124.093 56.1435 125.073 56.7614 125.908 57.5881C126.752 58.4148 127.408 59.4545 127.877 60.7074C128.346 61.9517 128.58 63.4091 128.58 65.0795V66.5753H111.999V63.2003H123.454C123.454 62.4162 123.283 61.7216 122.942 61.1165C122.602 60.5114 122.129 60.0384 121.523 59.6974C120.927 59.348 120.232 59.1733 119.44 59.1733C118.613 59.1733 117.88 59.3651 117.241 59.7486C116.61 60.1236 116.116 60.6307 115.758 61.2699C115.4 61.9006 115.217 62.6037 115.208 63.3793V66.5881C115.208 67.5597 115.387 68.3991 115.745 69.1065C116.112 69.8139 116.627 70.3594 117.292 70.7429C117.957 71.1264 118.745 71.3182 119.657 71.3182C120.262 71.3182 120.816 71.233 121.319 71.0625C121.822 70.892 122.252 70.6364 122.61 70.2955C122.968 69.9545 123.241 69.5369 123.428 69.0426L128.465 69.375C128.21 70.5852 127.685 71.642 126.893 72.5455C126.109 73.4403 125.094 74.1392 123.85 74.642C122.614 75.1364 121.187 75.3835 119.567 75.3835ZM137.734 75.3707C136.481 75.3707 135.364 75.1534 134.384 74.7188C133.404 74.2756 132.629 73.6236 132.058 72.7628C131.495 71.8935 131.214 70.8111 131.214 69.5156C131.214 68.4247 131.414 67.5085 131.815 66.767C132.215 66.0256 132.761 65.429 133.451 64.9773C134.141 64.5256 134.925 64.1847 135.803 63.9545C136.69 63.7244 137.619 63.5625 138.59 63.4688C139.732 63.3494 140.653 63.2386 141.352 63.1364C142.05 63.0256 142.558 62.8636 142.873 62.6506C143.188 62.4375 143.346 62.1222 143.346 61.7045V61.6278C143.346 60.8182 143.09 60.1918 142.579 59.7486C142.076 59.3054 141.36 59.0838 140.431 59.0838C139.451 59.0838 138.671 59.3011 138.092 59.7358C137.512 60.1619 137.129 60.6989 136.941 61.3466L131.904 60.9375C132.16 59.7443 132.663 58.7131 133.413 57.8438C134.163 56.9659 135.13 56.2926 136.315 55.8239C137.508 55.3466 138.888 55.108 140.457 55.108C141.548 55.108 142.592 55.2358 143.589 55.4915C144.594 55.7472 145.485 56.1435 146.261 56.6804C147.045 57.2173 147.663 57.9077 148.114 58.7514C148.566 59.5866 148.792 60.5881 148.792 61.7557V75H143.627V72.277H143.474C143.158 72.8906 142.737 73.4318 142.208 73.9006C141.68 74.3608 141.045 74.723 140.303 74.9872C139.562 75.2429 138.705 75.3707 137.734 75.3707ZM139.293 71.6122C140.094 71.6122 140.802 71.4545 141.415 71.1392C142.029 70.8153 142.511 70.3807 142.86 69.8352C143.21 69.2898 143.384 68.6719 143.384 67.9815V65.8977C143.214 66.0085 142.979 66.1108 142.681 66.2045C142.391 66.2898 142.063 66.3707 141.697 66.4474C141.33 66.5156 140.964 66.5795 140.597 66.6392C140.231 66.6903 139.898 66.7372 139.6 66.7798C138.961 66.8736 138.403 67.0227 137.925 67.2273C137.448 67.4318 137.077 67.7088 136.813 68.0582C136.549 68.3991 136.417 68.8253 136.417 69.3366C136.417 70.0781 136.685 70.6449 137.222 71.0369C137.768 71.4205 138.458 71.6122 139.293 71.6122ZM158.463 63.6477V75H153.017V55.3636H158.207V58.8281H158.438C158.872 57.6861 159.601 56.7827 160.624 56.1179C161.646 55.4446 162.886 55.108 164.344 55.108C165.707 55.108 166.896 55.4062 167.911 56.0028C168.925 56.5994 169.713 57.4517 170.276 58.5597C170.838 59.6591 171.119 60.9716 171.119 62.4972V75H165.673V63.4688C165.682 62.267 165.375 61.3295 164.753 60.6562C164.131 59.9744 163.274 59.6335 162.183 59.6335C161.45 59.6335 160.803 59.7912 160.24 60.1065C159.686 60.4219 159.251 60.8821 158.936 61.4872C158.629 62.0838 158.472 62.804 158.463 63.6477Z" fill="black"/>
</g>
<path d="M195.5 48.8358C195.5 48.8358 151.682 22.8358 107.5 22.8358C63.3168 22.8358 35.9574 35.7824 5.4996 48.8358C-22.5004 60.8358 63.3168 0 107.5 0C151.682 0 195.5 48.8358 195.5 48.8358Z" fill="#F77F00"/>
<path d="M195 70.6794C195 70.6794 151.295 98.5347 107.225 98.5347C63.155 98.5347 35.8655 84.6642 5.48555 70.6794C-22.4429 57.8231 63.155 123 107.225 123C151.295 123 195 70.6794 195 70.6794Z" fill="#F77F00"/>
</svg>
