<svg width="204" height="123" viewBox="0 0 204 123" fill="none" xmlns="http://www.w3.org/2000/svg">
<g style="mix-blend-mode:darken">
<path d="M25.2618 53.3821V48.8182H46.7646V53.3821H38.749V75H33.2774V53.3821H25.2618ZM60.124 66.6392V55.3636H65.57V75H60.3414V71.4332H60.1368C59.6936 72.5838 58.9564 73.5085 57.9252 74.2074C56.9024 74.9062 55.6539 75.2557 54.1794 75.2557C52.8669 75.2557 51.7121 74.9574 50.7149 74.3608C49.7178 73.7642 48.9379 72.9162 48.3754 71.8168C47.8215 70.7173 47.5402 69.4006 47.5317 67.8665V55.3636H52.9777V66.8949C52.9862 68.054 53.2973 68.9702 53.911 69.6435C54.5246 70.3168 55.347 70.6534 56.3783 70.6534C57.0345 70.6534 57.6482 70.5043 58.2192 70.206C58.7902 69.8991 59.2504 69.4474 59.5999 68.8509C59.9578 68.2543 60.1325 67.517 60.124 66.6392ZM80.3708 55.3636V59.4545H68.5455V55.3636H80.3708ZM71.2302 50.6591H76.6762V68.9659C76.6762 69.4687 76.7529 69.8608 76.9063 70.142C77.0597 70.4148 77.2728 70.6065 77.5455 70.7173C77.8268 70.8281 78.1507 70.8835 78.5171 70.8835C78.7728 70.8835 79.0285 70.8622 79.2842 70.8196C79.5399 70.7685 79.7359 70.7301 79.8722 70.7045L80.7288 74.7571C80.4561 74.8423 80.0725 74.9403 79.5782 75.0511C79.0839 75.1705 78.483 75.2429 77.7757 75.2685C76.4632 75.3196 75.3126 75.1449 74.324 74.7443C73.3438 74.3437 72.5811 73.7216 72.0356 72.8778C71.4901 72.0341 71.2217 70.9687 71.2302 69.6818V50.6591ZM92.5796 75.3835C90.5938 75.3835 88.8765 74.9616 87.4276 74.1179C85.9873 73.2656 84.8751 72.081 84.091 70.5639C83.3069 69.0384 82.9149 67.2699 82.9149 65.2585C82.9149 63.2301 83.3069 61.4574 84.091 59.9403C84.8751 58.4148 85.9873 57.2301 87.4276 56.3864C88.8765 55.5341 90.5938 55.108 92.5796 55.108C94.5654 55.108 96.2785 55.5341 97.7188 56.3864C99.1677 57.2301 100.284 58.4148 101.068 59.9403C101.852 61.4574 102.244 63.2301 102.244 65.2585C102.244 67.2699 101.852 69.0384 101.068 70.5639C100.284 72.081 99.1677 73.2656 97.7188 74.1179C96.2785 74.9616 94.5654 75.3835 92.5796 75.3835ZM92.6052 71.1648C93.5086 71.1648 94.2629 70.9091 94.868 70.3977C95.4731 69.8778 95.9291 69.1705 96.2359 68.2756C96.5512 67.3807 96.7089 66.3622 96.7089 65.2202C96.7089 64.0781 96.5512 63.0597 96.2359 62.1648C95.9291 61.2699 95.4731 60.5625 94.868 60.0426C94.2629 59.5227 93.5086 59.2628 92.6052 59.2628C91.6933 59.2628 90.9262 59.5227 90.3041 60.0426C89.6904 60.5625 89.2259 61.2699 88.9106 62.1648C88.6038 63.0597 88.4504 64.0781 88.4504 65.2202C88.4504 66.3622 88.6038 67.3807 88.9106 68.2756C89.2259 69.1705 89.6904 69.8778 90.3041 70.3977C90.9262 70.9091 91.6933 71.1648 92.6052 71.1648ZM105.786 75V55.3636H111.065V58.7898H111.27C111.628 57.571 112.229 56.6506 113.073 56.0284C113.916 55.3977 114.888 55.0824 115.987 55.0824C116.26 55.0824 116.554 55.0994 116.869 55.1335C117.185 55.1676 117.462 55.2145 117.7 55.2741V60.1065C117.445 60.0298 117.091 59.9616 116.639 59.902C116.188 59.8423 115.774 59.8125 115.399 59.8125C114.598 59.8125 113.882 59.9872 113.252 60.3366C112.629 60.6776 112.135 61.1548 111.769 61.7685C111.411 62.3821 111.232 63.0895 111.232 63.8906V75H105.786ZM128.551 75.3835C126.531 75.3835 124.792 74.9744 123.335 74.1562C121.886 73.3295 120.77 72.1619 119.986 70.6534C119.201 69.1364 118.809 67.3423 118.809 65.2713C118.809 63.2514 119.201 61.4787 119.986 59.9531C120.77 58.4276 121.873 57.2386 123.297 56.3864C124.728 55.5341 126.407 55.108 128.334 55.108C129.629 55.108 130.835 55.3168 131.951 55.7344C133.076 56.1435 134.057 56.7614 134.892 57.5881C135.736 58.4148 136.392 59.4545 136.861 60.7074C137.329 61.9517 137.564 63.4091 137.564 65.0795V66.5753H120.983V63.2003H132.437C132.437 62.4162 132.267 61.7216 131.926 61.1165C131.585 60.5114 131.112 60.0384 130.507 59.6974C129.91 59.348 129.216 59.1733 128.423 59.1733C127.596 59.1733 126.863 59.3651 126.224 59.7486C125.593 60.1236 125.099 60.6307 124.741 61.2699C124.383 61.9006 124.2 62.6037 124.191 63.3793V66.5881C124.191 67.5597 124.37 68.3991 124.728 69.1065C125.095 69.8139 125.611 70.3594 126.275 70.7429C126.94 71.1264 127.728 71.3182 128.64 71.3182C129.245 71.3182 129.799 71.233 130.302 71.0625C130.805 70.892 131.236 70.6364 131.593 70.2955C131.951 69.9545 132.224 69.5369 132.412 69.0426L137.449 69.375C137.193 70.5852 136.669 71.642 135.876 72.5455C135.092 73.4403 134.078 74.1392 132.834 74.642C131.598 75.1364 130.17 75.3835 128.551 75.3835ZM146.717 75.3707C145.464 75.3707 144.348 75.1534 143.368 74.7188C142.388 74.2756 141.612 73.6236 141.041 72.7628C140.478 71.8935 140.197 70.8111 140.197 69.5156C140.197 68.4247 140.397 67.5085 140.798 66.767C141.199 66.0256 141.744 65.429 142.434 64.9773C143.125 64.5256 143.909 64.1847 144.787 63.9545C145.673 63.7244 146.602 63.5625 147.574 63.4688C148.716 63.3494 149.636 63.2386 150.335 63.1364C151.034 63.0256 151.541 62.8636 151.856 62.6506C152.172 62.4375 152.329 62.1222 152.329 61.7045V61.6278C152.329 60.8182 152.074 60.1918 151.562 59.7486C151.059 59.3054 150.343 59.0838 149.415 59.0838C148.434 59.0838 147.655 59.3011 147.075 59.7358C146.495 60.1619 146.112 60.6989 145.924 61.3466L140.888 60.9375C141.143 59.7443 141.646 58.7131 142.396 57.8438C143.146 56.9659 144.113 56.2926 145.298 55.8239C146.491 55.3466 147.872 55.108 149.44 55.108C150.531 55.108 151.575 55.2358 152.572 55.4915C153.578 55.7472 154.468 56.1435 155.244 56.6804C156.028 57.2173 156.646 57.9077 157.098 58.7514C157.549 59.5866 157.775 60.5881 157.775 61.7557V75H152.611V72.277H152.457C152.142 72.8906 151.72 73.4318 151.191 73.9006C150.663 74.3608 150.028 74.723 149.287 74.9872C148.545 75.2429 147.689 75.3707 146.717 75.3707ZM148.277 71.6122C149.078 71.6122 149.785 71.4545 150.399 71.1392C151.013 70.8153 151.494 70.3807 151.843 69.8352C152.193 69.2898 152.368 68.6719 152.368 67.9815V65.8977C152.197 66.0085 151.963 66.1108 151.665 66.2045C151.375 66.2898 151.047 66.3707 150.68 66.4474C150.314 66.5156 149.947 66.5795 149.581 66.6392C149.214 66.6903 148.882 66.7372 148.584 66.7798C147.944 66.8736 147.386 67.0227 146.909 67.2273C146.432 67.4318 146.061 67.7088 145.797 68.0582C145.532 68.3991 145.4 68.8253 145.4 69.3366C145.4 70.0781 145.669 70.6449 146.206 71.0369C146.751 71.4205 147.441 71.6122 148.277 71.6122ZM167.446 63.6477V75H162V55.3636H167.191V58.8281H167.421C167.856 57.6861 168.584 56.7827 169.607 56.1179C170.63 55.4446 171.87 55.108 173.327 55.108C174.691 55.108 175.88 55.4062 176.894 56.0028C177.908 56.5994 178.696 57.4517 179.259 58.5597C179.821 59.6591 180.103 60.9716 180.103 62.4972V75H174.657V63.4688C174.665 62.267 174.358 61.3295 173.736 60.6562C173.114 59.9744 172.258 59.6335 171.167 59.6335C170.434 59.6335 169.786 59.7912 169.223 60.1065C168.669 60.4219 168.235 60.8821 167.919 61.4872C167.613 62.0838 167.455 62.804 167.446 63.6477Z" fill="black"/>
</g>
<path d="M203.988 48.8358C203.988 48.8358 158.268 22.8358 112.167 22.8358C66.0659 22.8358 37.5186 35.7824 5.73838 48.8358C-23.4773 60.8358 66.0659 0 112.167 0C158.268 0 203.988 48.8358 203.988 48.8358Z" fill="#F77F00"/>
<path d="M203.466 70.6794C203.466 70.6794 157.864 98.5347 111.88 98.5347C65.8971 98.5347 37.4227 84.6642 5.72372 70.6794C-23.4173 57.8231 65.8971 123 111.88 123C157.864 123 203.466 70.6794 203.466 70.6794Z" fill="#F77F00"/>
</svg>
